<?xml version="1.0" encoding="iso-8859-1"?>
<!-- Generator: Adobe Illustrator 19.0.0, SVG Export Plug-In . SVG Version: 6.00 Build 0)  -->
<svg version="1.1" id="Layer_1" xmlns="http://www.w3.org/2000/svg" xmlns:xlink="http://www.w3.org/1999/xlink" x="0px" y="0px"
	 viewBox="0 0 512 512" style="enable-background:new 0 0 512 512;" xml:space="preserve">
<path style="fill:#6EB4F0;" d="M361.941,245.567c0,0,79.451,35.311,88.278,70.623c8.828,35.311-26.483,74.485-26.483,74.485
	c-4.966,30.346-26.483,40.277-26.483,40.277c-9.564,23.909-35.311,17.656-35.311,17.656c-17.656,8.828-32.529-1.692-44.139-17.656
	c-14.713-20.23-24.758-11.156-36.231-27.22c-9.196-12.874-25.564-57.197-25.564-86.439c0-17.656,0-71.726,0-71.726H361.941z"/>
<path style="fill:#78C8FF;" d="M273.663,245.567h88.278c0,0,79.451,35.311,88.278,70.623c8.828,35.311-26.483,74.485-26.483,74.485
	S326.63,351.501,273.663,245.567z"/>
<path style="fill:#6B829B;" d="M281.57,403.732c-9.195-12.874-25.563-57.197-25.563-86.439c0-17.656,0-71.726,0-71.726h17.656
	c1.103,72.278,44.139,185.384,44.139,185.384C303.088,410.72,293.044,419.794,281.57,403.732z"/>
<path style="fill:#6EB4F0;" d="M483.574,60.182c17.529,0,28.425,8.437,28.425,26.482c0,8.829-3.581,20.935-10.769,35.312
	c-26.483,52.967-8.828,114.762-35.311,132.417c-26.483,17.656-192.257-8.828-192.257-8.828v-17.656
	C273.663,227.911,342.054,60.182,483.574,60.182z"/>
<path style="fill:#5F9BEB;" d="M483.574,60.182c17.529,0,28.425,8.437,28.425,26.482c0,3.184-0.631,6.928-1.564,10.916
	c-50.636,38.061-145.786,105.526-236.772,147.986v-17.656C273.663,227.911,342.054,60.182,483.574,60.182z"/>
<path style="fill:#5A464B;" d="M432.564,95.494c-85.26,21.315-133.215,103.271-154.401,150.771c-2.877-0.439-4.5-0.697-4.5-0.697
	v-17.656c0,0,68.391-167.729,209.913-167.729c17.529,0,28.424,8.437,28.424,26.482c0,8.71-3.518,20.631-10.514,34.754
	C486.288,97.446,459.443,88.774,432.564,95.494z"/>
<path style="fill:#6EB4F0;" d="M150.059,245.567c0,0-79.451,35.311-88.278,70.623s26.483,74.485,26.483,74.485
	c4.966,30.346,26.483,40.277,26.483,40.277c9.564,23.909,35.311,17.656,35.311,17.656c17.656,8.828,32.529-1.692,44.139-17.656
	c14.713-20.23,24.758-11.156,36.231-27.22c9.195-12.873,25.564-57.197,25.564-86.439c0-17.656,0-71.726,0-71.726H150.059z"/>
<path style="fill:#78C8FF;" d="M238.337,245.567h-88.278c0,0-79.451,35.311-88.278,70.623s26.483,74.485,26.483,74.485
	S185.37,351.501,238.337,245.567z"/>
<path style="fill:#6B829B;" d="M230.429,403.732c9.195-12.873,25.564-57.197,25.564-86.439c0-17.656,0-71.726,0-71.726h-17.656
	c-1.103,72.278-44.139,185.384-44.139,185.384C208.911,410.72,218.956,419.794,230.429,403.732z"/>
<path style="fill:#908490;" d="M255.993,214.669c-2.103,0-3.914-1.483-4.328-3.552c-8.466-42.337-33.846-68.106-34.104-68.364
	c-1.725-1.724-1.725-4.518,0-6.241c1.725-1.724,4.518-1.725,6.241,0c0.974,0.974,21.052,21.362,32.191,56.183
	c11.139-34.82,31.216-55.208,32.191-56.183c1.725-1.725,4.509-1.725,6.232,0c1.725,1.716,1.732,4.509,0.009,6.241
	c-0.25,0.251-25.665,26.165-34.104,68.364C259.907,213.186,258.096,214.669,255.993,214.669z"/>
<path style="fill:#6EB4F0;" d="M28.425,60.182C10.897,60.182,0,68.62,0,86.664c0,8.829,3.581,20.935,10.769,35.312
	c26.483,52.967,8.828,114.762,35.311,132.417s192.257-8.828,192.257-8.828V227.91C238.337,227.911,169.946,60.182,28.425,60.182z"/>
<path style="fill:#5F9BEB;" d="M28.425,60.182C10.897,60.182,0,68.62,0,86.664c0,3.184,0.631,6.928,1.564,10.916
	c50.638,38.062,145.787,105.527,236.774,147.986V227.91C238.337,227.911,169.946,60.182,28.425,60.182z"/>
<g>
	<path style="fill:#5A464B;" d="M79.436,95.494c85.26,21.315,133.215,103.271,154.401,150.771c2.877-0.439,4.5-0.697,4.5-0.697
		v-17.656c0,0-68.391-167.729-209.912-167.729C10.897,60.182,0,68.62,0,86.664c0,8.71,3.518,20.631,10.514,34.754
		C25.712,97.446,52.557,88.774,79.436,95.494z"/>
	<path style="fill:#5A464B;" d="M255.993,280.878L255.993,280.878c-9.751,0-17.656-7.904-17.656-17.656v-35.311
		c0-9.751,7.904-17.656,17.656-17.656l0,0c9.751,0,17.656,7.904,17.656,17.656v35.311
		C273.648,272.973,265.743,280.878,255.993,280.878z"/>
</g>
<path style="fill:#463246;" d="M255.993,227.911L255.993,227.911c-4.875,0-8.828-3.953-8.828-8.828v-8.828
	c0-4.875,3.953-8.828,8.828-8.828l0,0c4.875,0,8.828,3.953,8.828,8.828v8.828C264.821,223.959,260.868,227.911,255.993,227.911z"/>
<g>
</g>
<g>
</g>
<g>
</g>
<g>
</g>
<g>
</g>
<g>
</g>
<g>
</g>
<g>
</g>
<g>
</g>
<g>
</g>
<g>
</g>
<g>
</g>
<g>
</g>
<g>
</g>
<g>
</g>
</svg>
