<svg id="Capa_1" enable-background="new 0 0 512 512" height="512" viewBox="0 0 512 512" width="512" xmlns="http://www.w3.org/2000/svg"><g><path d="m359.887 133.29c-45.703-42.217-88.887-83.09-88.887-118.29h-15-15c0 35.2-43.184 76.073-88.887 118.29-56.762 52.412-121.113 111.841-121.113 182.71 0 93.252 67.808 135 135 135 41.558 0 61.626-13.667 74.912-22.705 7.236-4.922 11.162-7.383 15.088-7.383s7.852 2.461 15.088 7.383c13.271 9.038 33.354 22.705 74.912 22.705 67.192 0 135-41.748 135-135 0-70.869-64.351-130.298-121.113-182.71z" fill="#b8e65c"/><path d="m346 451c67.192 0 135-41.748 135-135 0-70.869-64.351-130.298-121.113-182.71-45.703-42.217-88.887-83.09-88.887-118.29h-15v405.912c3.926 0 7.852 2.461 15.088 7.383 13.271 9.038 33.354 22.705 74.912 22.705z" fill="#8fcc52"/><path d="m371.605 290.395c-5.859-5.859-15.352-5.859-21.211 0l-79.394 79.394v-47.578l70.605-70.605c5.859-5.859 5.859-15.352 0-21.211s-15.352-5.859-21.211 0l-49.394 49.394v-47.578l40.605-40.605c5.859-5.859 5.859-15.352 0-21.211s-15.352-5.859-21.211 0l-19.394 19.394v-174.789c0-8.291-6.709-15-15-15s-15 6.709-15 15v174.789l-19.395-19.395c-5.859-5.859-15.352-5.859-21.211 0s-5.859 15.352 0 21.211l40.606 40.606v47.578l-49.395-49.395c-5.859-5.859-15.352-5.859-21.211 0s-5.859 15.352 0 21.211l70.606 70.606v47.578l-79.395-79.395c-5.859-5.859-15.352-5.859-21.211 0s-5.859 15.352 0 21.211l100.606 100.606v84.789c0 8.291 6.709 15 15 15s15-6.709 15-15v-84.789l100.605-100.605c5.86-5.86 5.86-15.352 0-21.211z" fill="#8fcc52"/><path d="m271 497v-84.789l100.605-100.605c5.859-5.859 5.859-15.352 0-21.211s-15.352-5.859-21.211 0l-79.394 79.394v-47.578l70.605-70.605c5.859-5.859 5.859-15.352 0-21.211s-15.352-5.859-21.211 0l-49.394 49.394v-47.578l40.605-40.605c5.859-5.859 5.859-15.352 0-21.211s-15.352-5.859-21.211 0l-19.394 19.394v-174.789c0-8.291-6.709-15-15-15v512c8.291 0 15-6.709 15-15z" fill="#6cb348"/></g></svg>